HIERARCHY
ROOT Hips
{
	OFFSET -0.001795 -0.223333 0.028219
	CHANNELS 6 Xposition Yposition Zposition Zrotation Yrotation Xrotation 
	JOINT LeftUpLeg
	{
		OFFSET 0.069520 -0.091406 -0.006815
		CHANNELS 3 Zrotation Yrotation Xrotation
		JOINT LeftLeg
		{
			OFFSET 0.034277 -0.375199 -0.004496
			CHANNELS 3 Zrotation Yrotation Xrotation
			JOINT LeftFoot
			{
				OFFSET -0.013596 -0.397961 -0.043693
				CHANNELS 3 Zrotation Yrotation Xrotation
				JOINT LeftToe
				{
					OFFSET 0.026358 -0.055791 0.119288
					CHANNELS 3 Zrotation Yrotation Xrotation
					End Site
					{
						OFFSET 0.000000 0.000000 0.000000
					}
				}
			}
		}
	}
	JOINT RightUpLeg
	{
		OFFSET -0.067670 -0.090522 -0.004320
		CHANNELS 3 Zrotation Yrotation Xrotation
		JOINT RightLeg
		{
			OFFSET -0.038290 -0.382569 -0.008850
			CHANNELS 3 Zrotation Yrotation Xrotation
			JOINT RightFoot
			{
				OFFSET 0.015774 -0.398415 -0.042312
				CHANNELS 3 Zrotation Yrotation Xrotation
				JOINT RightToe
				{
					OFFSET -0.025372 -0.048144 0.123348
					CHANNELS 3 Zrotation Yrotation Xrotation
					End Site
					{
						OFFSET 0.000000 0.000000 0.000000
					}
				}
			}
		}
	}
	JOINT Spine
	{
		OFFSET -0.002533 0.108963 -0.026696
		CHANNELS 3 Zrotation Yrotation Xrotation
		JOINT Spine1
		{
			OFFSET 0.005487 0.135180 0.001092
			CHANNELS 3 Zrotation Yrotation Xrotation
			JOINT Spine2
			{
				OFFSET 0.001457 0.052922 0.025425
				CHANNELS 3 Zrotation Yrotation Xrotation
				JOINT Neck
				{
					OFFSET -0.002778 0.213870 -0.042857
					CHANNELS 3 Zrotation Yrotation Xrotation
					JOINT Head
					{
						OFFSET 0.005152 0.064970 0.051349
						CHANNELS 3 Zrotation Yrotation Xrotation
						End Site
						{
							OFFSET 0.000000 0.000000 0.000000
						}
					}
				}
				JOINT LeftShoulder
				{
					OFFSET 0.078845 0.121749 -0.034090
					CHANNELS 3 Zrotation Yrotation Xrotation
					JOINT LeftArm
					{
						OFFSET 0.090977 0.030469 -0.008868
						CHANNELS 3 Zrotation Yrotation Xrotation
						JOINT LeftForeArm
						{
							OFFSET 0.259612 -0.012772 -0.027456
							CHANNELS 3 Zrotation Yrotation Xrotation
							JOINT LeftHand
							{
								OFFSET 0.249234 0.008986 -0.001171
								CHANNELS 3 Zrotation Yrotation Xrotation
								End Site
								{
									OFFSET 0.000000 0.000000 0.000000
								}
							}
						}
					}
				}
				JOINT RightShoulder
				{
					OFFSET -0.081759 0.118833 -0.038615
					CHANNELS 3 Zrotation Yrotation Xrotation
					JOINT RightArm
					{
						OFFSET -0.096012 0.032551 -0.009143
						CHANNELS 3 Zrotation Yrotation Xrotation
						JOINT RightForeArm
						{
							OFFSET -0.253742 -0.013329 -0.021401
							CHANNELS 3 Zrotation Yrotation Xrotation
							JOINT RightHand
							{
								OFFSET -0.255298 0.007772 -0.005559
								CHANNELS 3 Zrotation Yrotation Xrotation
								End Site
								{
									OFFSET 0.000000 0.000000 0.000000
								}
							}
						}
					}
				}
			}
		}
	}
}
MOTION
Frames: 12
Frame Time: 0.050000
-0.380040 0.936738 -0.027276 -1.702032 1.927380 4.274715 5.919868 -0.103774 1.621664 2.241477 0.082853 -5.984309 1.591154 6.218304 7.923760 0.000000 0.000000 0.000000 -0.608252 0.570147 -5.771485 1.133548 -0.133557 -0.368436 -0.646549 -4.590384 7.608258 0.000000 0.000000 0.000000 -1.577884 0.173661 -5.375004 0.224075 -0.226664 3.102177 2.610858 0.057596 3.035358 6.813867 -3.054413 -14.902127 0.000000 0.000000 0.000000 -28.585964 -4.738824 -0.098363 -30.334541 -0.030089 -3.344424 -69.051799 -50.735466 38.527403 0.000000 0.000000 0.000000 19.618496 10.975803 4.299551 17.497364 19.656309 0.338469 -49.221459 37.442089 -15.114763 0.000000 0.000000 0.000000 
-0.379782 0.936813 -0.026287 -1.716974 1.995283 4.249313 5.854959 -0.097302 1.732071 2.373630 0.078993 -6.041381 1.559942 6.169613 7.926289 0.000000 0.000000 0.000000 -0.758813 0.556605 -5.658788 1.414936 -0.164117 -0.393284 -0.659829 -4.620763 7.636948 0.000000 0.000000 0.000000 -1.557431 0.171720 -5.301127 0.370910 -0.307029 3.216992 2.679939 0.182041 2.594723 7.658635 -3.627155 -14.406006 0.000000 0.000000 0.000000 -28.542051 -4.492174 -0.327608 -29.822343 0.618898 -3.383858 -68.078080 -49.777297 37.085047 0.000000 0.000000 0.000000 19.473239 11.233773 4.463350 16.030232 19.991972 0.255230 -46.130744 34.106747 -12.551521 0.000000 0.000000 0.000000 
-0.379447 0.936744 -0.025097 -1.728739 2.249021 4.239777 5.870720 -0.101868 1.724172 2.391211 0.074639 -5.967696 1.463295 5.984865 7.817918 0.000000 0.000000 0.000000 -0.800425 0.539229 -5.480075 1.505117 -0.177349 -0.506580 -0.761013 -4.806761 7.626458 0.000000 0.000000 0.000000 -1.623605 0.168131 -5.276736 0.587307 -0.410354 2.981423 2.793740 0.313313 2.779359 8.178828 -3.996842 -14.052793 0.000000 0.000000 0.000000 -28.065717 -4.379428 -0.451109 -29.614686 1.203640 -3.468948 -68.456483 -49.002768 36.644683 0.000000 0.000000 0.000000 19.451849 11.110516 4.471144 14.860941 20.003019 0.130449 -43.794721 31.989991 -10.935365 0.000000 0.000000 0.000000 
-0.379105 0.936652 -0.023760 -1.772858 2.505386 4.133643 5.747677 -0.091560 1.907595 2.722806 0.061285 -6.031814 1.362840 5.802009 7.735478 0.000000 0.000000 0.000000 -0.675314 0.513789 -5.185295 1.363779 -0.166405 -0.619446 -0.867228 -4.994984 7.586645 0.000000 0.000000 0.000000 -1.760667 0.161689 -5.238491 0.845844 -0.550856 3.092948 2.759791 0.573563 2.686838 8.761478 -4.415609 -13.554712 0.000000 0.000000 0.000000 -27.705355 -4.176991 -0.706748 -29.178002 1.888475 -3.513822 -69.846050 -48.478910 36.993322 0.000000 0.000000 0.000000 19.612409 11.097241 4.579685 14.075235 19.625740 0.016694 -42.598669 30.389797 -9.932090 0.000000 0.000000 0.000000 
-0.378629 0.936552 -0.022535 -1.743892 2.846086 4.104417 5.694498 -0.096786 1.817682 2.788722 0.045825 -5.802104 1.239141 5.554084 7.565555 0.000000 0.000000 0.000000 -0.548498 0.500172 -5.018718 1.066289 -0.136681 -0.641644 -1.029740 -5.282248 7.506122 0.000000 0.000000 0.000000 -1.827424 0.154974 -5.096511 0.929839 -0.602159 3.170060 2.914489 0.863735 2.684668 9.048897 -4.623995 -13.233376 0.000000 0.000000 0.000000 -27.138648 -3.980767 -0.940071 -29.143734 2.292191 -3.555592 -71.886425 -48.406130 38.110813 0.000000 0.000000 0.000000 19.807082 10.984558 4.649976 13.438017 19.461787 -0.072069 -42.529435 28.984113 -9.337649 0.000000 0.000000 0.000000 
-0.377888 0.936534 -0.021667 -1.740074 3.197033 4.018664 5.746232 -0.106706 1.718067 2.686074 0.034980 -5.490760 1.111680 5.286152 7.364734 0.000000 0.000000 0.000000 -0.326444 0.475333 -4.723676 0.616559 -0.096041 -0.825203 -1.178419 -5.567239 7.514543 0.000000 0.000000 0.000000 -1.942293 0.146772 -4.943327 1.041794 -0.676797 3.403341 3.118256 1.062035 2.670265 9.589516 -4.902000 -13.458746 0.000000 0.000000 0.000000 -27.060494 -3.805143 -1.163765 -28.774678 2.914005 -3.603886 -74.531549 -48.901335 40.162432 0.000000 0.000000 0.000000 19.792886 11.216990 4.875865 12.780469 19.457584 -0.141831 -42.801788 27.498170 -8.817822 0.000000 0.000000 0.000000 
-0.376802 0.936704 -0.021135 -1.766396 3.463942 3.990116 5.664543 -0.114807 1.490072 2.816525 0.004936 -5.069921 1.033196 5.106822 7.192343 0.000000 0.000000 0.000000 -0.317068 0.454973 -4.509292 0.554992 -0.097167 -1.039463 -1.262273 -5.760529 7.659645 0.000000 0.000000 0.000000 -1.928093 0.142723 -4.787393 1.041708 -0.688331 3.550501 3.286929 1.378692 2.738512 9.984936 -5.042169 -13.879169 0.000000 0.000000 0.000000 -27.077093 -3.919639 -1.246929 -28.913606 3.390753 -3.685920 -76.582224 -49.602386 42.043050 0.000000 0.000000 0.000000 19.727144 11.531324 5.176538 11.860909 19.500199 -0.236332 -42.934899 26.240402 -8.341291 0.000000 0.000000 0.000000 
-0.375479 0.936797 -0.020818 -1.800921 3.728530 3.885624 5.568888 -0.119918 1.299437 2.958672 -0.030199 -4.588538 0.966926 4.924465 6.957503 0.000000 0.000000 0.000000 -0.315457 0.442197 -4.375905 0.494679 -0.089148 -0.979894 -1.365887 -5.971758 7.722790 0.000000 0.000000 0.000000 -1.917246 0.136731 -4.573278 1.169202 -0.747332 3.362600 3.370012 1.560628 3.158313 10.407341 -5.264000 -14.081235 0.000000 0.000000 0.000000 -27.336291 -3.999662 -1.326242 -28.846433 4.131076 -3.820134 -78.987701 -50.817082 44.748119 0.000000 0.000000 0.000000 19.509190 11.879259 5.465678 11.012675 19.663027 -0.323156 -43.148003 24.814681 -7.834439 0.000000 0.000000 0.000000 
-0.374117 0.936697 -0.020554 -1.749401 3.851224 3.911413 5.320389 -0.121701 1.028033 3.167545 -0.068540 -4.155668 0.969910 4.858794 6.736017 0.000000 0.000000 0.000000 -0.347258 0.434015 -4.293790 0.301366 -0.073701 -1.104828 -1.420081 -6.079397 7.741513 0.000000 0.000000 0.000000 -1.918384 0.135263 -4.519341 1.041167 -0.697283 3.607034 3.389238 1.841307 2.999573 10.635701 -5.293898 -14.468781 0.000000 0.000000 0.000000 -27.456440 -4.153148 -1.375230 -29.148960 4.511312 -3.901707 -80.135519 -51.267649 45.900679 0.000000 0.000000 0.000000 19.219262 12.340830 5.795985 10.481545 19.852239 -0.365762 -43.147102 23.463388 -7.297008 0.000000 0.000000 0.000000 
-0.373037 0.936496 -0.020400 -1.697872 4.000853 3.707350 5.156048 -0.111503 1.086111 3.268718 -0.091312 -3.884808 0.939585 4.733684 6.515576 0.000000 0.000000 0.000000 -0.424867 0.397973 -3.930181 0.231235 -0.073390 -1.289410 -1.476625 -6.178659 7.716137 0.000000 0.000000 0.000000 -2.011630 0.124964 -4.179451 0.926120 -0.641884 3.635332 3.479761 2.068484 3.061701 10.591858 -5.181312 -14.782981 0.000000 0.000000 0.000000 -28.129798 -4.449905 -1.371366 -29.060070 4.755560 -3.910509 -81.254619 -51.741001 47.106456 0.000000 0.000000 0.000000 18.944466 12.689118 6.050597 10.119088 19.545086 -0.417102 -42.917710 22.898770 -7.022295 0.000000 0.000000 0.000000 
-0.372365 0.936272 -0.020353 -1.747605 4.275520 3.618015 5.104023 -0.112032 1.071469 3.444402 -0.108648 -3.783323 0.855388 4.532249 6.334516 0.000000 0.000000 0.000000 -0.420020 0.368489 -3.622374 0.273800 -0.089609 -1.610309 -1.569738 -6.365480 7.776300 0.000000 0.000000 0.000000 -2.160700 0.117550 -4.009795 1.051742 -0.712325 3.655033 3.189904 2.232616 2.986816 10.771032 -5.195687 -15.085963 0.000000 0.000000 0.000000 -28.299711 -4.771884 -1.335728 -29.172281 4.444739 -3.822630 -81.200286 -51.966965 47.185787 0.000000 0.000000 0.000000 19.178599 13.026418 6.365778 9.818024 18.726922 -0.480723 -42.883668 22.557238 -6.865750 0.000000 0.000000 0.000000 
-0.371966 0.935879 -0.020430 -1.874108 4.632592 3.385325 5.283519 -0.117841 1.160721 3.410628 -0.113542 -3.644533 0.746113 4.247911 6.053736 0.000000 0.000000 0.000000 -0.502463 0.339434 -3.326625 0.669168 -0.130336 -1.638621 -1.706064 -6.611775 7.734598 0.000000 0.000000 0.000000 -2.348301 0.105735 -3.653285 1.142302 -0.762900 3.623617 3.167478 2.255426 3.018270 10.860496 -5.099424 -15.735432 0.000000 0.000000 0.000000 -28.297612 -5.126001 -1.194019 -29.469198 3.879108 -3.729684 -81.363719 -51.888422 47.165441 0.000000 0.000000 0.000000 19.281471 13.116735 6.486586 10.039574 17.807927 -0.506673 -43.367400 23.266866 -7.209328 0.000000 0.000000 0.000000 
